<svg xmlns="http://www.w3.org/2000/svg" width="56" height="232" viewBox="0 0 56 232" fill="none">
<path d="M2.06775 204.007C2.06775 197.749 4.87118 194.729 7.9636 187.517C8.75327 185.676 14.5772 166.503 14.5772 166.503H41.5435C41.5435 166.503 46.2253 184.831 47.1127 186.323C50.8349 192.602 54.053 197.176 54.053 204.007C54.053 218.364 42.4152 230 28.0604 230C13.704 230 2.06775 218.362 2.06775 204.007Z" stroke="white" stroke-width="3.1411" stroke-miterlimit="10" stroke-linecap="round" stroke-linejoin="round"/>
<path d="M28.0604 167.147V185.899Z" fill="white"/>
<path d="M28.0604 167.147V185.899" stroke="white" stroke-width="3.1411" stroke-miterlimit="10" stroke-linecap="round" stroke-linejoin="round"/>
<path d="M18.6842 185.899H37.4365Z" fill="white"/>
<path d="M18.6842 185.899H37.4365" stroke="white" stroke-width="3.1411" stroke-miterlimit="10" stroke-linecap="round" stroke-linejoin="round"/>
<path d="M15.2447 148.975C15.2447 143.887 20.9787 139.761 28.0525 139.761C35.1263 139.761 40.8603 143.887 40.8603 148.975H15.2447Z" fill="white" stroke="white" stroke-width="2.66365" stroke-miterlimit="10" stroke-linecap="round" stroke-linejoin="round"/>
<path d="M44.51 2.29889C44.51 7.38747 34.4801 8.0002 27.4064 8.0002C20.3326 8.0002 12.2032 7.38759 12.2032 2.299L44.51 2.29889Z" fill="white" stroke="white" stroke-width="2.66365" stroke-miterlimit="10" stroke-linecap="round" stroke-linejoin="round"/>
<path d="M40.6405 154.959L15.4802 160.409Z" fill="white"/>
<path d="M40.6405 154.959L15.4802 160.409" stroke="white" stroke-width="3.08613" stroke-miterlimit="10" stroke-linecap="round" stroke-linejoin="round"/>
<path d="M24.6051 153.247L15.5274 155.101Z" fill="white"/>
<path d="M24.6051 153.247L15.5274 155.101" stroke="white" stroke-width="3.1411" stroke-miterlimit="10" stroke-linecap="round" stroke-linejoin="round"/>
<path d="M40.5933 160.268L31.5156 162.121Z" fill="white"/>
<path d="M40.5933 160.268L31.5156 162.121" stroke="white" stroke-width="3.1411" stroke-miterlimit="10" stroke-linecap="round" stroke-linejoin="round"/>
</svg>